<svg version="1.2" xmlns="http://www.w3.org/2000/svg" viewBox="0 0 512 512" width="512" height="512">
	<title>image-solid-svg</title>
	<style>
		.s0 { fill: #ffffff } 
	</style>
	<path id="Layer" fill-rule="evenodd" class="s0" d="m0 96c0-35.3 28.7-64 64-64h384c35.3 0 64 28.7 64 64v320c0 35.3-28.7 64-64 64h-384c-35.3 0-64-28.7-64-64zm323.8 106.5c-4.5-6.6-11.9-10.5-19.8-10.5-7.9 0-15.4 3.9-19.8 10.5l-87 127.6-26.5-33.1c-4.6-5.7-11.5-9-18.7-9-7.2 0-14.2 3.3-18.7 9l-64 80c-5.8 7.2-6.9 17.1-2.9 25.4 4 8.3 12.4 13.6 21.6 13.6h336c8.9 0 17.1-4.9 21.2-12.8 4.1-7.9 3.6-17.4-1.4-24.7zm-211.8-10.5c26.5 0 48-21.5 48-48 0-26.5-21.5-48-48-48-26.5 0-48 21.5-48 48 0 26.5 21.5 48 48 48z"/>
</svg>